<svg width="38" height="38" viewBox="0 0 38 38" fill="none" xmlns="http://www.w3.org/2000/svg">
<circle cx="19" cy="19" r="18.25" fill="#F6BFBB" stroke="#5C5353" stroke-width="1.5"/>
<g clip-path="url(#clip0_386_77)">
<path d="M12.5163 22.2459H14.3207V14.2109H12.5163C10.2253 14.2109 9 15.4044 9 17.6148V18.8419C9 21.044 10.2253 22.2459 12.5163 22.2459ZM15.4704 22.2544C17.8454 22.5149 20.8162 23.2125 23.1241 24.3471C23.1241 24.2631 23.1241 24.1706 23.1241 24.0866V12.3954C23.1241 12.2945 23.1241 12.2105 23.1241 12.1096C20.7911 13.2527 17.6356 13.9755 15.4704 14.2109V22.2544ZM25.9775 26.3979C27.0013 26.3979 27.6894 25.7004 27.6894 24.6917V11.7146C27.6894 10.6976 27.0013 10 25.9775 10C24.9704 10 24.2738 10.6976 24.2738 11.7146V24.6917C24.2738 25.7004 24.9704 26.3979 25.9775 26.3979ZM15.8564 27.936C16.8971 27.936 17.6607 27.2048 17.3922 25.9104L16.9223 23.6496C16.2844 23.5403 15.3361 23.4646 13.2129 23.4058C13.0618 23.4058 12.8017 23.389 12.5331 23.389L13.943 26.4736C14.3626 27.3897 14.8829 27.936 15.8564 27.936Z" fill="#4E483C"/>
</g>
<defs>
<clipPath id="clip0_386_77">
<rect width="19" height="17.9444" fill="white" transform="translate(9 10)"/>
</clipPath>
</defs>
</svg>
