<svg width="38" height="38" viewBox="0 0 38 38" fill="none" xmlns="http://www.w3.org/2000/svg">
<circle cx="19" cy="19" r="18.25" fill="#F4E698" stroke="#5C5353" stroke-width="1.5"/>
<g clip-path="url(#clip0_312_628)">
<path d="M13.5078 10C11.3594 10 9.12305 10.9961 8.11719 12.7246C8.00977 12.9199 8 13.0469 8 13.4082V27.1875C8 27.6367 8.2832 27.9102 8.77148 27.9102C9.00586 27.9102 9.23047 27.8418 9.40625 27.6758C10.6367 26.6211 12.2676 26.0742 13.8984 26.0742C15.4219 26.0742 16.8379 26.6113 17.873 27.5C17.9805 27.5879 18.1074 27.6367 18.2148 27.6367C18.4297 27.6367 18.6055 27.4805 18.6055 27.2266V12.7832C18.6055 12.5293 18.5859 12.4707 18.4004 12.207C17.4434 10.8301 15.5684 10 13.5078 10ZM24.9824 10C22.9219 10 21.0469 10.8301 20.0898 12.207C19.9043 12.4707 19.8848 12.5293 19.8848 12.7832V27.2266C19.8848 27.4805 20.0605 27.6367 20.2754 27.6367C20.3828 27.6367 20.5195 27.5879 20.6172 27.5C21.6523 26.6113 23.0684 26.0742 24.5918 26.0742C26.2227 26.0742 27.8535 26.6211 29.084 27.6758C29.2598 27.8418 29.4844 27.9102 29.7188 27.9102C30.207 27.9102 30.4902 27.6367 30.4902 27.1875V13.4082C30.4902 13.0469 30.4805 12.9102 30.373 12.7246C29.3672 10.9961 27.1309 10 24.9824 10Z" fill="#4E483C"/>
</g>
<defs>
<clipPath id="clip0_312_628">
<rect width="22.8516" height="17.9395" fill="white" transform="translate(8 10)"/>
</clipPath>
</defs>
</svg>
