<svg width="39" height="39" viewBox="0 0 39 39" fill="none" xmlns="http://www.w3.org/2000/svg">
<circle cx="19.5" cy="19.5" r="18.75" fill="#C8E48B" stroke="#5C5353" stroke-width="1.5"/>
<g clip-path="url(#clip0_312_620)">
<path d="M14.9715 21.7518C13.836 22.9336 13.196 24.4434 13.196 25.7982C13.196 26.1962 13.2778 26.5676 13.4346 26.8869H8.20231C7.33473 26.8869 7 26.4776 7 25.741C7 23.4737 8.92643 20.7482 12.0073 20.7482C13.1759 20.7482 14.1783 21.1403 14.9715 21.7518ZM14.3846 16.3447C14.3846 18.1208 13.2848 19.4959 12.0073 19.4959C10.7367 19.4959 9.63006 18.1208 9.63006 16.3611C9.63006 14.6177 10.7436 13.2836 12.0073 13.2836C13.278 13.2836 14.3846 14.585 14.3846 16.3447Z" fill="#4E483C"/>
<path d="M32.7472 25.741C32.7472 26.4776 32.4125 26.8869 31.545 26.8869H26.3209C26.477 26.5676 26.5581 26.1962 26.5581 25.7982C26.5581 24.4424 25.9188 22.9313 24.7827 21.7492C25.5753 21.1392 26.5772 20.7482 27.7467 20.7482C30.8277 20.7482 32.7472 23.4737 32.7472 25.741ZM30.124 16.3447C30.124 18.1208 29.0242 19.4959 27.7467 19.4959C26.4761 19.4959 25.3626 18.1208 25.3626 16.3611C25.3626 14.6177 26.4761 13.2836 27.7467 13.2836C29.0174 13.2836 30.124 14.585 30.124 16.3447Z" fill="#4E483C"/>
<path d="M19.8838 19.3077C21.3457 19.3077 22.6163 17.7362 22.6163 15.6899C22.6163 13.6683 21.3457 12.1704 19.8838 12.1704C18.4219 12.1704 17.1513 13.701 17.1513 15.7063C17.1513 17.7362 18.4151 19.3077 19.8838 19.3077ZM15.2932 26.8869H24.4608C25.1918 26.8869 25.629 26.4776 25.629 25.7982C25.629 23.6866 23.4225 20.7728 19.877 20.7728C16.3384 20.7728 14.1318 23.6866 14.1318 25.7982C14.1318 26.4776 14.569 26.8869 15.2932 26.8869Z" fill="#4E483C"/>
</g>
<defs>
<clipPath id="clip0_312_620">
<rect width="26" height="17" fill="white" transform="translate(7 11)"/>
</clipPath>
</defs>
</svg>
