<svg width="65" height="61" viewBox="0 0 65 61" fill="none" xmlns="http://www.w3.org/2000/svg">
<path d="M46.9649 15.4692H53.2679C57.931 15.4692 61.6717 19.4719 61.6717 24.4254V51.0438C61.6717 55.9972 57.8797 60 53.2679 60H9.40386C4.74074 60 1 55.9972 1 51.0438V24.4254C1 19.4719 4.79198 15.4692 9.40386 15.4692H15.7067" stroke="white" stroke-width="2" stroke-linecap="round" stroke-linejoin="round"/>
<path d="M15.707 15.4693L18.2179 10.616C19.3965 8.3144 21.805 6.86337 24.4696 6.86337H38.254C40.9186 6.86337 43.327 8.3144 44.5057 10.616L47.0164 15.4693" stroke="white" stroke-width="2" stroke-linecap="round" stroke-linejoin="round"/>
<path d="M31.3355 48.1424C37.9297 48.1424 43.2751 42.923 43.2751 36.4843C43.2751 30.0459 37.9297 24.8264 31.3355 24.8264C24.7416 24.8264 19.396 30.0459 19.396 36.4843C19.396 42.923 24.7416 48.1424 31.3355 48.1424Z" stroke="white" stroke-width="2" stroke-linecap="round" stroke-linejoin="round"/>
<path d="M51.5415 6.86337H57.5465M57.5465 6.86337H63.5515M57.5465 6.86337V1M57.5465 6.86337V12.7267" stroke="white" stroke-width="1.5" stroke-linecap="round" stroke-linejoin="round"/>
</svg>
