<svg width="257" height="123" viewBox="0 0 257 123" fill="none" xmlns="http://www.w3.org/2000/svg">
<g clip-path="url(#clip0_386_79)">
<mask id="mask0_386_79" style="mask-type:luminance" maskUnits="userSpaceOnUse" x="0" y="0" width="257" height="123">
<path d="M257 0H0V123H257V0Z" fill="white"/>
</mask>
<g mask="url(#mask0_386_79)">
<path d="M61.1364 61.7254L102.934 37.8032C112.693 32.1375 116.088 19.7566 110.36 10.1038C104.631 0.451012 92.113 -2.9065 82.3532 2.75929L10.2158 43.8887L61.1364 61.7254Z" fill="#EA4335" fill-opacity="0.75"/>
<path d="M92.5373 123C99.5389 123 106.54 119.433 110.36 112.927C116.088 103.275 112.693 90.8939 102.934 85.2281L30.7962 44.0987C21.0364 38.4329 8.51839 41.7904 2.78983 51.4432C-2.93873 61.0961 0.455978 73.4768 10.2157 79.1426L82.3532 120.272C85.5358 122.161 89.1426 123 92.5373 123Z" fill="#4285F4" fill-opacity="0.75"/>
<path d="M164.251 123C167.645 123 171.252 122.161 174.435 120.272L246.572 79.1427L196.288 60.8863L153.854 85.0183C144.095 90.6841 140.7 103.065 146.429 112.718C150.248 119.433 157.249 123 164.251 123Z" fill="#FBBC04" fill-opacity="0.75"/>
<path d="M236.388 81.8705C243.389 81.8705 250.391 78.3032 254.21 71.798C259.939 62.1452 256.544 49.7644 246.784 44.0986L174.647 2.96924C164.887 -2.69655 152.369 0.661012 146.641 10.3138C140.912 19.9666 144.307 32.3474 154.067 38.0132L226.204 79.1426C229.386 81.0312 232.993 81.8705 236.388 81.8705Z" fill="#34A853" fill-opacity="0.75"/>
<g filter="url(#filter0_d_386_79)">
<path d="M156.687 95.024H157.515V95.852C157.515 97.76 156.267 99.368 154.443 99.992L153.939 99.2C155.571 98.672 156.687 97.328 156.687 95.852V95.024ZM156.879 95.024H157.707V95.852C157.707 97.256 158.847 98.516 160.443 99.02L159.951 99.8C158.151 99.212 156.879 97.688 156.879 95.852V95.024ZM154.215 94.796H160.155V95.6H154.215V94.796ZM161.691 94.088H162.699V99.956H161.691V94.088ZM155.703 100.496H156.687V101.78H161.715V100.496H162.699V104.792H155.703V100.496ZM156.687 102.584V103.976H161.715V102.584H156.687ZM165.998 94.448H172.982V95.252H165.998V94.448ZM164.846 99.392H174.638V100.208H164.846V99.392ZM168.83 97.904H169.826V99.956H168.83V97.904ZM172.442 94.448H173.426V95.324C173.426 96.284 173.426 97.34 173.126 98.756L172.142 98.696C172.442 97.292 172.442 96.26 172.442 95.324V94.448ZM165.89 101.324H173.438V104.9H172.442V102.14H165.89V101.324ZM172.73 96.332V97.076L165.878 97.4L165.734 96.548L172.73 96.332ZM186.477 94.088H187.473V99.608H186.477V94.088ZM187.041 96.416H189.069V97.244H187.041V96.416ZM179.505 94.7H184.485V99.044H179.505V94.7ZM183.513 95.492H180.477V98.252H183.513V95.492ZM180.585 100.124H187.473V102.788H181.593V104.408H180.609V102.032H186.501V100.916H180.585V100.124ZM180.609 103.988H187.869V104.792H180.609V103.988ZM191.132 95.168H198.116V95.996H191.132V95.168ZM190.1 102.596H199.904V103.424H190.1V102.596ZM193.904 98.72H194.9V103.004H193.904V98.72ZM197.744 95.168H198.728V96.248C198.728 97.592 198.728 99.08 198.332 101.276L197.336 101.144C197.744 99.068 197.744 97.544 197.744 96.248V95.168ZM207.183 95.636H207.987V97.4C207.987 99.692 206.607 101.996 204.879 102.848L204.303 102.056C205.875 101.312 207.183 99.272 207.183 97.4V95.636ZM207.375 95.636H208.179V97.4C208.179 99.236 209.487 101.108 211.083 101.792L210.519 102.584C208.767 101.768 207.375 99.656 207.375 97.4V95.636ZM204.663 95.192H210.723V96.032H204.663V95.192ZM212.187 94.088H213.183V104.936H212.187V94.088ZM216.506 94.448H223.49V95.252H216.506V94.448ZM215.354 99.392H225.146V100.208H215.354V99.392ZM219.338 97.904H220.334V99.956H219.338V97.904ZM222.95 94.448H223.934V95.324C223.934 96.284 223.934 97.34 223.634 98.756L222.65 98.696C222.95 97.292 222.95 96.26 222.95 95.324V94.448ZM216.398 101.324H223.946V104.9H222.95V102.14H216.398V101.324ZM223.238 96.332V97.076L216.386 97.4L216.242 96.548L223.238 96.332Z" fill="white"/>
</g>
<g filter="url(#filter1_d_386_79)">
<path d="M74.6457 73.415L74.7757 64.575C74.7757 63.9683 75.404 63.5783 76.6607 63.405C77.9174 63.1883 78.9574 63.08 79.7807 63.08L82.3157 63.275C83.9624 63.535 84.7857 63.99 84.7857 64.64L84.5257 84.985C83.659 85.5917 81.9039 86.1983 79.2607 86.805C76.6607 87.3683 73.6707 87.65 70.2907 87.65C64.0074 87.65 58.9374 85.6133 55.0807 81.54C51.224 77.4667 49.2957 71.4867 49.2957 63.6C49.2957 56.8833 51.1807 51.4233 54.9507 47.22C58.7207 43.0167 63.9424 40.915 70.6157 40.915C73.649 40.915 76.379 41.2183 78.8057 41.825C81.2757 42.3883 82.9657 43.1683 83.8757 44.165C83.919 44.5117 83.9407 45.1617 83.9407 46.115C83.9407 47.0683 83.6157 48.4333 82.9657 50.21C82.3157 51.9433 81.579 53.2433 80.7557 54.11C79.9324 54.9767 79.3257 55.41 78.9357 55.41C78.589 55.41 78.199 55.2583 77.7657 54.955C77.3757 54.6083 76.574 54.2617 75.3607 53.915C74.1474 53.525 72.9774 53.33 71.8507 53.33C69.164 53.33 66.9757 54.1967 65.2857 55.93C63.639 57.6633 62.8157 60.35 62.8157 63.99C62.8157 67.63 63.6607 70.4033 65.3507 72.31C67.084 74.1733 69.0557 75.105 71.2657 75.105C73.519 75.105 74.6457 74.5417 74.6457 73.415ZM103.967 86.09C103.967 86.74 101.93 87.065 97.8568 87.065L94.2168 86.87C92.0501 86.6967 90.9668 86.3933 90.9668 85.96V42.345C90.9668 41.6083 93.1334 41.24 97.4668 41.24C101.8 41.24 103.967 41.6083 103.967 42.345V58.985L111.897 42.345C112.2 41.7383 113.933 41.435 117.097 41.435C122.86 41.435 125.893 41.9333 126.197 42.93C126.197 43.0167 126.175 43.1033 126.132 43.19L114.822 63.6L127.952 81.735C127.952 81.8217 127.54 82.19 126.717 82.84C124.723 84.5733 122.383 85.9383 119.697 86.935C118.873 87.2383 118.05 87.39 117.227 87.39L115.667 87.26C114.28 86.9133 113.197 86.025 112.417 84.595L105.007 70.425H103.967V86.09ZM150.579 87.65C144.513 87.65 139.551 85.6567 135.694 81.67C131.881 77.6833 129.974 71.8767 129.974 64.25C129.974 56.58 131.903 50.7733 135.759 46.83C139.659 42.8867 144.664 40.915 150.774 40.915C156.928 40.915 161.889 42.865 165.659 46.765C169.429 50.6217 171.314 56.4933 171.314 64.38C171.314 72.2233 169.386 78.0733 165.529 81.93C161.673 85.7433 156.689 87.65 150.579 87.65ZM150.644 53.395C148.564 53.395 146.809 54.3483 145.379 56.255C143.993 58.1617 143.299 60.8483 143.299 64.315C143.299 67.7383 143.971 70.3817 145.314 72.245C146.658 74.065 148.413 74.975 150.579 74.975C152.789 74.975 154.566 74.0433 155.909 72.18C157.296 70.3167 157.989 67.6517 157.989 64.185C157.989 60.7183 157.274 58.0533 155.844 56.19C154.458 54.3267 152.724 53.395 150.644 53.395ZM200.583 73.415L200.713 64.575C200.713 63.9683 201.342 63.5783 202.598 63.405C203.855 63.1883 204.895 63.08 205.718 63.08L208.253 63.275C209.9 63.535 210.723 63.99 210.723 64.64L210.463 84.985C209.597 85.5917 207.842 86.1983 205.198 86.805C202.598 87.3683 199.608 87.65 196.228 87.65C189.945 87.65 184.875 85.6133 181.018 81.54C177.162 77.4667 175.233 71.4867 175.233 63.6C175.233 56.8833 177.118 51.4233 180.888 47.22C184.658 43.0167 189.88 40.915 196.553 40.915C199.587 40.915 202.317 41.2183 204.743 41.825C207.213 42.3883 208.903 43.1683 209.813 44.165C209.857 44.5117 209.878 45.1617 209.878 46.115C209.878 47.0683 209.553 48.4333 208.903 50.21C208.253 51.9433 207.517 53.2433 206.693 54.11C205.87 54.9767 205.263 55.41 204.873 55.41C204.527 55.41 204.137 55.2583 203.703 54.955C203.313 54.6083 202.512 54.2617 201.298 53.915C200.085 53.525 198.915 53.33 197.788 53.33C195.102 53.33 192.913 54.1967 191.223 55.93C189.577 57.6633 188.753 60.35 188.753 63.99C188.753 67.63 189.598 70.4033 191.288 72.31C193.022 74.1733 194.993 75.105 197.203 75.105C199.457 75.105 200.583 74.5417 200.583 73.415Z" fill="white"/>
</g>
</g>
</g>
<defs>
<filter id="filter0_d_386_79" x="149.939" y="94.088" width="79.207" height="18.848" filterUnits="userSpaceOnUse" color-interpolation-filters="sRGB">
<feFlood flood-opacity="0" result="BackgroundImageFix"/>
<feColorMatrix in="SourceAlpha" type="matrix" values="0 0 0 0 0 0 0 0 0 0 0 0 0 0 0 0 0 0 127 0" result="hardAlpha"/>
<feOffset dy="4"/>
<feGaussianBlur stdDeviation="2"/>
<feComposite in2="hardAlpha" operator="out"/>
<feColorMatrix type="matrix" values="0 0 0 0 0 0 0 0 0 0 0 0 0 0 0 0 0 0 0.25 0"/>
<feBlend mode="normal" in2="BackgroundImageFix" result="effect1_dropShadow_386_79"/>
<feBlend mode="normal" in="SourceGraphic" in2="effect1_dropShadow_386_79" result="shape"/>
</filter>
<filter id="filter1_d_386_79" x="45.2957" y="40.915" width="169.427" height="54.735" filterUnits="userSpaceOnUse" color-interpolation-filters="sRGB">
<feFlood flood-opacity="0" result="BackgroundImageFix"/>
<feColorMatrix in="SourceAlpha" type="matrix" values="0 0 0 0 0 0 0 0 0 0 0 0 0 0 0 0 0 0 127 0" result="hardAlpha"/>
<feOffset dy="4"/>
<feGaussianBlur stdDeviation="2"/>
<feComposite in2="hardAlpha" operator="out"/>
<feColorMatrix type="matrix" values="0 0 0 0 0 0 0 0 0 0 0 0 0 0 0 0 0 0 0.25 0"/>
<feBlend mode="normal" in2="BackgroundImageFix" result="effect1_dropShadow_386_79"/>
<feBlend mode="normal" in="SourceGraphic" in2="effect1_dropShadow_386_79" result="shape"/>
</filter>
<clipPath id="clip0_386_79">
<rect width="257" height="123" fill="white"/>
</clipPath>
</defs>
</svg>
